<svg xmlns="http://www.w3.org/2000/svg" xmlns:xlink="http://www.w3.org/1999/xlink" preserveAspectRatio="xMidYMid" width="44" height="80" viewBox="0 0 44 80">
  <defs>
    <style>

      .cls-2 {
        fill: #000000;
      }
    </style>
  </defs>
  <path d="M36.483,57.353 C36.483,57.353 36.483,78.918 36.483,78.918 C36.483,78.918 33.311,78.918 33.311,78.918 C33.311,78.918 33.311,37.817 33.311,37.817 C33.311,37.817 36.483,37.817 36.483,37.817 C36.483,37.817 36.483,53.902 36.483,53.902 C38.331,53.112 39.656,51.085 39.656,49.325 C39.656,49.325 39.656,34.529 39.656,34.529 C39.656,30.776 30.995,27.952 25.379,27.952 C23.014,27.952 19.189,28.556 15.976,29.906 C14.511,30.521 11.101,32.204 11.101,34.529 C11.101,34.529 11.101,52.613 11.101,52.613 C11.101,52.613 14.274,52.613 14.274,52.613 C14.274,52.613 14.274,37.817 14.274,37.817 C14.274,37.817 17.447,37.817 17.447,37.817 C17.447,37.817 17.447,52.613 17.447,52.613 C17.447,52.613 19.033,52.613 19.033,52.613 C19.909,52.613 20.620,53.349 20.620,54.257 C20.620,54.257 20.620,69.054 20.620,69.054 C20.620,69.962 19.909,70.698 19.033,70.698 C19.033,70.698 17.447,70.698 17.447,70.698 C17.447,70.698 17.447,78.918 17.447,78.918 C17.447,78.918 14.274,78.918 14.274,78.918 C14.274,78.918 14.274,70.698 14.274,70.698 C14.274,70.698 1.583,70.698 1.583,70.698 C0.707,70.698 -0.003,69.962 -0.003,69.054 C-0.003,69.054 -0.003,54.257 -0.003,54.257 C-0.003,53.349 0.707,52.613 1.583,52.613 C1.583,52.613 7.929,52.613 7.929,52.613 C7.929,52.613 7.929,34.529 7.929,34.529 C7.929,29.803 13.371,26.918 18.691,25.573 C16.945,24.082 15.861,22.015 15.861,19.732 C15.861,19.732 15.861,16.444 15.861,16.444 C15.861,16.444 12.688,16.444 12.688,16.444 C12.688,16.444 12.688,13.156 12.688,13.156 C12.688,13.156 14.282,13.156 14.282,13.156 C14.308,10.802 14.443,8.458 15.167,6.447 C16.132,3.770 17.969,2.217 20.620,1.785 C20.620,1.785 20.620,1.647 20.620,1.647 C20.620,0.739 21.330,0.003 22.206,0.003 C22.206,0.003 28.551,0.003 28.551,0.003 C29.428,0.003 30.138,0.739 30.138,1.647 C30.138,1.647 30.138,1.785 30.138,1.785 C32.788,2.217 34.626,3.770 35.590,6.447 C36.314,8.458 36.449,10.802 36.475,13.156 C36.475,13.156 38.070,13.156 38.070,13.156 C38.070,13.156 38.070,16.444 38.070,16.444 C38.070,16.444 34.897,16.444 34.897,16.444 C34.897,16.444 34.897,19.732 34.897,19.732 C34.897,22.015 33.812,24.083 32.066,25.574 C33.441,25.921 34.777,26.356 35.973,26.858 C41.639,29.238 42.829,32.343 42.829,34.529 C42.829,34.529 42.829,49.325 42.829,49.325 C42.829,53.070 39.963,56.521 36.483,57.353 ZM3.170,55.901 C3.170,55.901 3.170,67.410 3.170,67.410 C3.170,67.410 17.447,67.410 17.447,67.410 C17.447,67.410 17.447,55.901 17.447,55.901 C17.447,55.901 3.170,55.901 3.170,55.901 ZM30.138,5.131 C30.138,5.131 30.138,6.579 30.138,6.579 C30.138,6.579 26.965,6.579 26.965,6.579 C26.965,6.579 26.965,3.291 26.965,3.291 C26.965,3.291 23.792,3.291 23.792,3.291 C23.792,3.291 23.792,6.579 23.792,6.579 C23.792,6.579 20.620,6.579 20.620,6.579 C20.620,6.579 20.620,5.131 20.620,5.131 C18.083,5.825 17.543,8.442 17.462,13.156 C17.462,13.156 33.296,13.156 33.296,13.156 C33.214,8.442 32.674,5.825 30.138,5.131 ZM31.724,19.732 C31.724,19.732 31.724,16.444 31.724,16.444 C31.724,16.444 19.033,16.444 19.033,16.444 C19.033,16.444 19.033,19.732 19.033,19.732 C19.033,22.452 21.880,24.664 25.379,24.664 C28.878,24.664 31.724,22.452 31.724,19.732 ZM28.551,78.918 C28.551,78.918 25.379,78.918 25.379,78.918 C25.379,78.918 25.379,54.257 25.379,54.257 C25.379,54.257 28.551,54.257 28.551,54.257 C28.551,54.257 28.551,78.918 28.551,78.918 Z" id="path-1" class="cls-2" fill-rule="evenodd"/>
</svg>

