<svg xmlns="http://www.w3.org/2000/svg" xmlns:xlink="http://www.w3.org/1999/xlink" preserveAspectRatio="xMidYMid" width="63" height="57" viewBox="0 0 63 57">
  <defs>
    <style>

      .cls-2 {
        fill: #2c2c2c;
      }
    </style>
  </defs>
  <path d="M62.623,33.302 C62.623,33.302 61.621,34.291 61.621,34.291 C61.100,34.805 60.411,35.082 59.697,35.082 C59.487,35.082 59.274,35.058 59.062,35.009 C58.134,34.792 57.401,34.131 57.100,33.239 C57.100,33.239 56.213,32.107 56.213,32.107 C56.213,32.107 56.941,33.185 56.941,33.185 C56.941,33.185 55.102,34.395 55.102,34.395 C54.950,39.220 53.281,43.362 50.210,46.420 C50.210,46.420 48.550,55.924 48.550,55.924 C48.441,56.546 47.895,57.000 47.257,57.000 C47.257,57.000 43.319,57.000 43.319,57.000 C42.828,57.000 42.378,56.729 42.153,56.299 C42.153,56.299 39.989,52.161 39.989,52.161 C37.470,52.801 34.684,53.113 31.506,53.113 C28.971,53.113 25.533,52.674 23.009,52.055 C23.009,52.055 20.867,56.284 20.867,56.284 C20.644,56.723 20.190,57.000 19.693,57.000 C19.693,57.000 15.755,57.000 15.755,57.000 C15.030,57.000 14.443,56.420 14.443,55.704 C14.443,55.704 14.443,47.903 14.443,47.903 C11.259,46.426 3.338,41.385 1.857,38.598 C0.517,36.075 -0.700,31.547 0.497,29.607 C0.907,28.943 1.579,28.563 2.340,28.563 C2.404,28.562 2.444,28.563 2.494,28.563 C3.984,28.563 5.140,28.401 6.075,28.058 C6.956,26.291 8.184,24.751 9.678,23.537 C7.597,19.906 6.778,17.981 7.752,16.774 C8.409,15.956 9.601,15.993 9.997,16.008 C11.881,16.072 14.917,17.001 17.388,18.504 C21.607,16.541 25.943,15.545 30.290,15.545 C42.930,15.545 53.372,22.477 54.915,31.404 C54.915,31.404 55.485,31.029 55.485,31.029 C56.200,30.559 57.076,30.449 57.886,30.723 C58.697,30.997 59.318,31.616 59.589,32.419 C59.589,32.419 59.765,32.460 59.765,32.460 C59.765,32.460 60.767,31.470 60.767,31.470 C61.280,30.964 62.110,30.964 62.623,31.470 C63.136,31.976 63.136,32.796 62.623,33.302 ZM30.290,18.136 C26.751,18.136 23.207,18.866 19.732,20.310 C20.040,20.622 20.319,20.948 20.555,21.288 C20.555,21.288 18.393,22.758 18.393,22.758 C16.723,20.368 11.983,18.764 10.110,18.599 C10.552,19.852 11.945,22.238 12.529,23.240 C12.873,23.828 12.698,24.577 12.129,24.958 C10.453,26.081 9.110,27.683 8.248,29.588 C8.118,29.874 7.890,30.104 7.603,30.236 C6.275,30.844 4.701,31.138 2.669,31.154 C2.466,32.075 2.892,34.967 4.182,37.395 C5.483,39.841 14.741,45.422 16.018,45.765 C16.590,45.919 17.068,46.449 17.068,47.033 C17.068,47.033 17.068,54.409 17.068,54.409 C17.068,54.409 18.882,54.409 18.882,54.409 C18.882,54.409 21.144,49.943 21.144,49.943 C21.430,49.376 22.090,49.102 22.704,49.284 C24.991,49.979 28.857,50.523 31.506,50.523 C34.872,50.523 37.743,50.152 40.283,49.389 C40.890,49.207 41.541,49.480 41.831,50.034 C41.831,50.034 44.119,54.409 44.119,54.409 C44.119,54.409 46.151,54.409 46.151,54.409 C46.151,54.409 47.695,45.569 47.695,45.569 C47.743,45.295 47.879,45.043 48.081,44.852 C51.018,42.081 52.507,38.322 52.507,33.682 C52.507,25.255 42.332,18.136 30.290,18.136 ZM47.257,33.682 C47.257,29.113 40.460,23.318 32.819,23.318 C32.093,23.318 31.506,22.739 31.506,22.023 C31.506,21.307 32.093,20.727 32.819,20.727 C41.430,20.727 49.882,27.144 49.882,33.682 C49.882,34.398 49.295,34.977 48.570,34.977 C47.844,34.977 47.257,34.398 47.257,33.682 ZM13.130,28.500 C13.130,28.500 15.755,28.500 15.755,28.500 C15.755,28.500 15.755,31.091 15.755,31.091 C15.755,31.091 13.130,31.091 13.130,31.091 C13.130,31.091 13.130,28.500 13.130,28.500 ZM35.085,13.386 C36.163,12.198 36.756,10.665 36.756,9.068 C36.756,5.497 33.812,2.591 30.194,2.591 C26.575,2.591 23.631,5.497 23.631,9.068 C23.631,10.665 24.224,12.198 25.302,13.386 C25.302,13.386 23.346,15.114 23.346,15.114 C21.836,13.449 21.006,11.302 21.006,9.068 C21.006,4.068 25.128,-0.000 30.194,-0.000 C35.259,-0.000 39.382,4.068 39.382,9.068 C39.382,11.302 38.551,13.449 37.041,15.114 C37.041,15.114 35.085,13.386 35.085,13.386 Z" id="path-1" class="cls-2" fill-rule="evenodd"/>
</svg>

