<svg xmlns="http://www.w3.org/2000/svg" xmlns:xlink="http://www.w3.org/1999/xlink" preserveAspectRatio="xMidYMid" width="78" height="66" viewBox="0 0 78 66">
  <defs>
    <style>

      .cls-2 {
        fill: #ffffff;
      }
    </style>
  </defs>
  <path d="M77.817,22.647 C77.332,23.973 75.999,24.599 75.849,24.666 C75.694,24.735 75.533,24.768 75.373,24.768 C74.936,24.768 74.518,24.522 74.317,24.103 C74.245,23.954 73.632,22.614 74.117,21.287 C74.117,21.287 74.117,21.287 74.117,21.287 C74.602,19.961 75.935,19.335 76.085,19.268 C76.664,19.011 77.342,19.259 77.618,19.831 C77.689,19.980 78.303,21.320 77.817,22.647 ZM73.753,16.294 C73.741,16.294 73.730,16.294 73.719,16.293 C73.363,16.283 73.030,16.111 72.816,15.826 C72.698,15.668 72.109,14.827 72.140,13.730 C72.172,12.634 72.808,11.828 72.936,11.678 C73.166,11.406 73.505,11.252 73.864,11.263 C74.220,11.274 74.552,11.446 74.767,11.731 C74.885,11.888 75.474,12.729 75.443,13.826 C75.411,14.923 74.774,15.729 74.647,15.879 C74.424,16.142 74.096,16.294 73.753,16.294 ZM69.998,30.132 C69.747,30.132 69.494,30.052 69.281,29.886 C69.121,29.763 67.717,28.627 67.528,26.920 C67.339,25.213 68.461,23.796 68.589,23.640 C68.993,23.151 69.711,23.071 70.211,23.460 C70.371,23.584 71.776,24.720 71.965,26.427 C72.154,28.133 71.032,29.550 70.903,29.706 C70.672,29.986 70.337,30.132 69.998,30.132 ZM69.611,20.525 C69.360,20.525 69.107,20.444 68.893,20.279 C68.780,20.191 67.784,19.385 67.648,18.155 C67.512,16.925 68.307,15.920 68.398,15.810 C68.802,15.321 69.520,15.240 70.021,15.629 C70.134,15.717 71.130,16.523 71.266,17.753 C71.402,18.983 70.607,19.988 70.516,20.098 C70.284,20.379 69.949,20.525 69.611,20.525 ZM68.376,12.535 C68.217,12.535 68.055,12.503 67.901,12.434 C67.757,12.370 66.482,11.772 66.017,10.501 C65.551,9.230 66.137,7.948 66.206,7.805 C66.481,7.234 67.159,6.984 67.738,7.242 C67.881,7.306 69.156,7.904 69.622,9.175 C70.087,10.446 69.502,11.728 69.433,11.870 C69.232,12.289 68.813,12.535 68.376,12.535 ZM64.263,4.959 C64.205,4.959 64.147,4.955 64.088,4.946 C63.932,4.923 62.545,4.686 61.759,3.585 C60.972,2.484 61.197,1.092 61.225,0.937 C61.338,0.312 61.925,-0.110 62.552,-0.015 C62.708,0.008 64.095,0.245 64.881,1.346 C65.668,2.447 65.443,3.839 65.415,3.994 C65.312,4.560 64.820,4.959 64.263,4.959 ZM61.365,43.266 C62.227,41.781 63.970,41.312 64.166,41.264 C64.780,41.111 65.405,41.475 65.576,42.086 C65.631,42.281 66.085,44.032 65.223,45.516 C64.362,47.000 62.618,47.469 62.422,47.518 C62.328,47.541 62.233,47.553 62.140,47.553 C61.626,47.553 61.157,47.212 61.012,46.695 C60.957,46.500 60.503,44.750 61.365,43.266 C61.365,43.266 61.365,43.266 61.365,43.266 ZM39.059,46.574 C27.280,46.574 17.697,36.970 17.697,25.165 C17.697,13.361 27.280,3.757 39.059,3.757 C41.818,3.757 44.504,4.277 47.042,5.303 C47.643,5.545 47.934,6.230 47.692,6.832 C47.449,7.434 46.766,7.725 46.165,7.483 C43.907,6.570 41.516,6.108 39.059,6.108 C28.573,6.108 20.042,14.657 20.042,25.165 C20.042,35.674 28.573,44.223 39.059,44.223 C49.545,44.223 58.076,35.674 58.076,25.165 C58.076,22.939 57.697,20.759 56.949,18.686 C56.729,18.076 57.044,17.402 57.653,17.182 C58.262,16.961 58.934,17.277 59.154,17.887 C59.995,20.217 60.421,22.666 60.421,25.165 C60.421,36.970 50.838,46.574 39.059,46.574 ZM36.824,31.019 C36.596,31.248 36.295,31.363 35.995,31.363 C35.695,31.363 35.395,31.248 35.166,31.019 C35.166,31.019 30.155,25.997 30.155,25.997 C29.697,25.537 29.697,24.794 30.155,24.334 C30.612,23.876 31.355,23.876 31.813,24.334 C31.813,24.334 35.995,28.526 35.995,28.526 C35.995,28.526 54.820,9.660 54.820,9.660 C55.278,9.202 56.021,9.202 56.478,9.660 C56.936,10.119 56.936,10.863 56.478,11.322 C56.478,11.322 36.824,31.019 36.824,31.019 ZM15.865,47.553 C15.771,47.553 15.677,47.541 15.582,47.518 C15.386,47.469 13.643,47.000 12.781,45.516 C11.919,44.032 12.374,42.281 12.428,42.086 C12.600,41.475 13.224,41.111 13.839,41.264 C14.035,41.312 15.778,41.781 16.640,43.266 C17.502,44.750 17.047,46.501 16.993,46.695 C16.848,47.212 16.378,47.552 15.865,47.553 ZM16.246,3.585 C16.246,3.585 16.246,3.585 16.246,3.585 C16.246,3.585 16.246,3.585 16.246,3.585 C16.246,3.585 16.246,3.585 16.246,3.585 ZM13.917,4.946 C13.858,4.955 13.800,4.959 13.742,4.959 C13.184,4.959 12.692,4.560 12.590,3.994 C12.561,3.839 12.337,2.447 13.123,1.346 C13.910,0.245 15.297,0.008 15.453,-0.015 C16.079,-0.109 16.667,0.312 16.780,0.937 C16.808,1.092 17.032,2.484 16.246,3.585 C15.460,4.686 14.072,4.923 13.917,4.946 ZM10.104,12.434 C9.949,12.502 9.787,12.535 9.628,12.535 C9.191,12.535 8.773,12.289 8.571,11.870 C8.503,11.728 7.917,10.446 8.383,9.175 C8.848,7.904 10.123,7.306 10.267,7.242 C10.846,6.984 11.524,7.234 11.799,7.805 C11.867,7.948 12.453,9.230 11.988,10.501 C11.522,11.772 10.247,12.370 10.104,12.434 ZM9.606,15.810 C9.697,15.920 10.493,16.926 10.356,18.155 C10.220,19.385 9.224,20.191 9.111,20.279 C8.898,20.444 8.645,20.525 8.394,20.525 C8.056,20.525 7.720,20.379 7.489,20.098 C7.398,19.988 6.602,18.983 6.739,17.753 C6.875,16.523 7.871,15.717 7.984,15.629 C8.485,15.241 9.203,15.321 9.606,15.810 ZM7.793,23.460 C8.294,23.071 9.012,23.151 9.415,23.640 C9.544,23.796 10.666,25.213 10.477,26.920 C10.288,28.627 8.883,29.763 8.724,29.886 C8.510,30.052 8.257,30.132 8.006,30.132 C7.668,30.132 7.333,29.987 7.102,29.706 C6.973,29.550 5.851,28.133 6.040,26.427 C6.229,24.720 7.634,23.584 7.793,23.460 ZM4.286,16.293 C4.274,16.294 4.263,16.294 4.252,16.294 C3.908,16.294 3.581,16.142 3.358,15.879 C3.230,15.729 2.594,14.923 2.562,13.826 C2.530,12.729 3.120,11.888 3.238,11.731 C3.453,11.446 3.785,11.274 4.141,11.263 C4.497,11.254 4.838,11.406 5.069,11.678 C5.196,11.828 5.833,12.634 5.865,13.730 C5.896,14.827 5.307,15.668 5.188,15.826 C4.974,16.111 4.642,16.283 4.286,16.293 ZM3.888,21.287 C4.373,22.614 3.759,23.954 3.688,24.103 C3.486,24.522 3.068,24.768 2.631,24.768 C2.472,24.768 2.310,24.735 2.156,24.666 C2.005,24.599 0.672,23.973 0.187,22.647 C-0.298,21.320 0.316,19.980 0.387,19.831 C0.662,19.259 1.341,19.011 1.919,19.268 C2.070,19.335 3.402,19.961 3.888,21.287 ZM1.952,28.957 C2.151,28.989 3.926,29.319 4.902,30.731 C5.878,32.142 5.563,33.923 5.524,34.122 C5.413,34.680 4.925,35.069 4.375,35.069 C4.311,35.069 4.247,35.064 4.182,35.053 C3.983,35.020 2.208,34.691 1.232,33.279 C0.256,31.868 0.571,30.087 0.610,29.888 C0.733,29.265 1.327,28.852 1.952,28.957 ZM3.746,38.248 C3.934,38.173 5.623,37.538 7.186,38.242 C8.749,38.946 9.397,40.634 9.465,40.824 C9.681,41.421 9.384,42.082 8.796,42.316 C8.674,42.365 7.916,42.651 6.971,42.651 C6.463,42.651 5.902,42.568 5.356,42.322 C3.793,41.618 3.145,39.930 3.077,39.739 C2.861,39.143 3.157,38.482 3.746,38.248 ZM9.176,35.365 C8.992,33.657 10.119,32.244 10.248,32.089 C10.653,31.601 11.372,31.523 11.871,31.914 C12.030,32.038 13.431,33.179 13.614,34.886 C13.798,36.594 12.671,38.007 12.542,38.162 C12.310,38.441 11.976,38.586 11.639,38.586 C11.387,38.586 11.133,38.504 10.919,38.337 C10.760,38.212 9.359,37.072 9.176,35.365 ZM9.981,46.842 C11.675,47.101 12.751,48.553 12.868,48.718 C13.235,49.235 13.126,49.951 12.622,50.335 C12.479,50.444 11.302,51.306 9.846,51.306 C9.671,51.306 9.491,51.293 9.309,51.265 C7.615,51.007 6.540,49.555 6.423,49.390 C6.055,48.873 6.164,48.157 6.668,47.773 C6.829,47.650 8.287,46.585 9.981,46.842 ZM16.825,52.152 C16.825,52.152 16.825,52.152 16.825,52.152 C18.519,52.411 19.594,53.863 19.711,54.028 C20.079,54.545 19.970,55.261 19.466,55.645 C19.323,55.754 18.146,56.615 16.690,56.615 C16.514,56.615 16.335,56.603 16.153,56.575 C14.459,56.316 13.384,54.864 13.267,54.699 C12.899,54.182 13.008,53.466 13.512,53.082 C13.673,52.960 15.131,51.893 16.825,52.152 ZM20.356,48.089 C20.554,48.047 22.327,47.707 23.748,48.666 C25.170,49.626 25.523,51.399 25.558,51.598 C25.670,52.223 25.266,52.824 24.647,52.955 C24.561,52.973 24.179,53.047 23.659,53.047 C22.978,53.047 22.060,52.921 21.255,52.378 C19.834,51.418 19.481,49.645 19.445,49.446 C19.333,48.821 19.737,48.220 20.356,48.089 ZM25.048,55.867 C25.053,55.867 25.059,55.867 25.065,55.867 C26.770,55.867 28.049,57.127 28.190,57.271 C28.633,57.724 28.636,58.449 28.198,58.907 C28.058,59.053 26.783,60.332 25.070,60.341 C25.064,60.341 25.058,60.341 25.052,60.341 C23.348,60.341 22.068,59.082 21.927,58.938 C21.485,58.484 21.481,57.760 21.919,57.302 C22.059,57.156 23.334,55.876 25.048,55.867 ZM30.073,49.934 C31.113,49.251 32.415,49.141 33.555,49.639 C33.555,49.639 39.002,52.020 39.002,52.020 C39.002,52.020 44.450,49.639 44.450,49.639 C45.590,49.141 46.891,49.251 47.931,49.934 C48.972,50.616 49.593,51.768 49.593,53.014 C49.593,54.203 49.015,55.325 48.048,56.015 C47.418,56.463 46.671,56.695 45.917,56.695 C45.511,56.695 45.104,56.628 44.712,56.491 C44.712,56.491 41.085,55.228 41.085,55.228 C41.085,55.228 45.085,64.319 45.085,64.319 C45.346,64.912 45.078,65.606 44.485,65.868 C44.331,65.936 44.170,65.968 44.013,65.968 C43.562,65.968 43.132,65.706 42.939,65.267 C42.939,65.267 38.943,56.185 38.943,56.185 C38.943,56.185 34.930,65.268 34.930,65.268 C34.668,65.862 33.976,66.130 33.383,65.867 C32.791,65.604 32.524,64.910 32.786,64.317 C32.786,64.317 36.780,55.276 36.780,55.276 C36.780,55.276 33.292,56.491 33.292,56.491 C32.900,56.628 32.493,56.695 32.088,56.695 C31.334,56.695 30.586,56.463 29.957,56.015 C28.989,55.325 28.412,54.203 28.412,53.014 C28.412,51.768 29.033,50.616 30.073,49.934 ZM45.482,54.272 C45.894,54.415 46.334,54.352 46.689,54.099 C47.044,53.846 47.247,53.450 47.247,53.014 C47.247,52.556 47.028,52.151 46.647,51.900 C46.265,51.649 45.806,51.611 45.388,51.793 C45.388,51.793 42.275,53.154 42.275,53.154 C42.275,53.154 45.482,54.272 45.482,54.272 ZM31.316,54.099 C31.671,54.352 32.111,54.415 32.522,54.272 C32.522,54.272 35.729,53.154 35.729,53.154 C35.729,53.154 32.617,51.793 32.617,51.793 C32.443,51.717 32.262,51.680 32.082,51.680 C31.830,51.680 31.581,51.754 31.358,51.900 C30.976,52.151 30.757,52.556 30.757,53.014 C30.757,53.450 30.961,53.846 31.316,54.099 ZM52.940,55.867 C52.946,55.867 52.951,55.867 52.957,55.867 C54.671,55.876 55.946,57.156 56.085,57.302 C56.524,57.760 56.520,58.484 56.077,58.938 C55.937,59.082 54.657,60.341 52.952,60.341 C52.946,60.341 52.941,60.341 52.935,60.341 C51.221,60.332 49.946,59.053 49.807,58.907 C49.368,58.449 49.372,57.724 49.815,57.271 C49.955,57.127 51.235,55.867 52.940,55.867 ZM53.358,52.955 C52.738,52.824 52.335,52.223 52.446,51.598 C52.482,51.399 52.835,49.626 54.256,48.666 C54.256,48.666 54.256,48.666 54.256,48.666 C55.678,47.707 57.451,48.047 57.648,48.089 C58.268,48.220 58.671,48.821 58.560,49.446 C58.524,49.645 58.171,51.418 56.750,52.378 C55.944,52.921 55.026,53.047 54.346,53.047 C53.825,53.047 53.443,52.973 53.358,52.955 ZM61.180,52.152 C61.180,52.152 61.180,52.152 61.180,52.152 C62.874,51.893 64.332,52.960 64.493,53.082 C64.997,53.466 65.105,54.182 64.738,54.699 C64.621,54.864 63.546,56.316 61.851,56.575 C61.669,56.603 61.490,56.615 61.315,56.615 C59.859,56.615 58.682,55.754 58.539,55.645 C58.034,55.261 57.926,54.545 58.293,54.028 C58.410,53.863 59.486,52.411 61.180,52.152 ZM65.137,48.718 C65.254,48.553 66.330,47.101 68.024,46.842 C69.718,46.585 71.176,47.650 71.336,47.773 C71.840,48.157 71.949,48.873 71.582,49.390 C71.465,49.555 70.389,51.007 68.695,51.266 C68.513,51.293 68.334,51.306 68.159,51.306 C66.703,51.306 65.526,50.445 65.383,50.335 C64.878,49.951 64.770,49.235 65.137,48.718 ZM67.086,38.337 C66.872,38.504 66.618,38.586 66.365,38.586 C66.028,38.586 65.695,38.441 65.463,38.162 C65.334,38.007 64.207,36.594 64.390,34.886 C64.573,33.179 65.974,32.038 66.133,31.914 C66.633,31.523 67.351,31.601 67.756,32.089 C67.885,32.244 69.012,33.657 68.829,35.365 C68.646,37.072 67.245,38.212 67.086,38.337 ZM69.209,42.316 C68.620,42.082 68.324,41.421 68.539,40.824 C68.608,40.634 69.256,38.946 70.818,38.242 C72.381,37.537 74.071,38.173 74.259,38.248 C74.847,38.482 75.143,39.143 74.928,39.739 C74.859,39.930 74.212,41.618 72.649,42.322 C72.103,42.568 71.541,42.651 71.034,42.651 C70.088,42.651 69.331,42.365 69.209,42.316 ZM73.630,35.069 C73.080,35.069 72.591,34.680 72.481,34.122 C72.442,33.923 72.127,32.142 73.103,30.731 C74.079,29.319 75.853,28.989 76.053,28.957 C76.677,28.852 77.271,29.265 77.394,29.888 C77.433,30.086 77.748,31.867 76.772,33.279 C75.796,34.691 74.022,35.020 73.822,35.053 C73.758,35.064 73.693,35.069 73.630,35.069 Z" id="path-1" class="cls-2" fill-rule="evenodd"/>
</svg>

