<svg xmlns="http://www.w3.org/2000/svg" xmlns:xlink="http://www.w3.org/1999/xlink" preserveAspectRatio="xMidYMid" width="30" height="35" viewBox="0 0 30 35">
  <defs>
    <style>

      .cls-2 {
        fill: #000000;
      }
    </style>
  </defs>
  <path d="M0.756,34.995 C0.327,34.995 -0.022,34.629 -0.007,34.189 C0.198,27.808 1.673,23.408 5.661,22.141 C7.787,21.467 8.875,20.842 9.507,20.242 C9.965,19.807 10.214,19.354 10.448,18.781 C10.448,18.781 10.626,18.309 10.626,18.309 C10.626,18.309 10.194,17.888 10.194,17.888 C8.621,16.171 7.558,13.349 7.495,9.384 C7.495,9.384 7.495,9.382 7.495,9.382 C7.073,9.382 6.731,9.031 6.731,8.600 C6.731,8.545 6.736,8.493 6.746,8.443 C6.746,8.443 6.773,8.359 6.773,8.359 C6.773,8.359 6.768,8.304 6.768,8.304 C6.765,8.279 6.768,8.252 6.768,8.222 C7.121,2.794 10.970,-0.006 14.852,-0.006 C18.732,-0.006 22.593,2.794 22.978,8.217 C22.983,8.274 22.980,8.324 22.973,8.379 C22.973,8.379 22.968,8.404 22.968,8.404 C22.968,8.404 22.983,8.443 22.983,8.443 C22.993,8.493 22.998,8.545 22.998,8.600 C22.998,8.817 22.912,9.011 22.773,9.153 C22.773,9.153 22.632,9.250 22.632,9.250 C22.632,9.250 22.656,9.359 22.656,9.359 C22.705,13.135 21.337,16.133 19.354,17.953 C19.354,17.953 19.235,18.052 19.235,18.052 C19.235,18.052 19.303,18.162 19.303,18.162 C19.625,19.050 19.866,19.660 20.476,20.242 C21.108,20.842 22.195,21.467 24.324,22.141 C28.297,23.403 29.787,27.783 29.992,34.189 C30.006,34.629 29.660,34.995 29.228,34.995 C29.228,34.995 0.756,34.995 0.756,34.995 ZM5.114,33.432 C5.114,33.432 5.114,24.080 5.114,24.080 C5.114,24.080 4.710,24.346 4.710,24.346 C2.871,25.712 1.851,28.535 1.573,33.084 C1.573,33.084 1.559,33.432 1.559,33.432 C1.559,33.432 5.114,33.432 5.114,33.432 ZM13.757,33.432 C13.757,33.432 13.757,31.332 13.757,31.332 C13.757,30.901 14.099,30.550 14.523,30.550 C14.523,30.550 21.108,30.550 21.108,30.550 C21.532,30.550 21.873,30.901 21.873,31.332 C21.873,31.332 21.873,33.432 21.873,33.432 C21.873,33.432 23.251,33.432 23.251,33.432 C23.251,33.432 23.249,23.428 23.249,23.428 C23.249,23.428 23.080,23.370 23.080,23.370 C22.329,23.104 21.693,22.838 21.154,22.559 C21.154,22.559 21.034,22.494 21.034,22.494 C21.034,22.494 21.034,28.258 21.034,28.258 C21.034,28.691 20.693,29.040 20.271,29.040 C20.271,29.040 9.199,29.040 9.199,29.040 C8.777,29.040 8.433,28.691 8.433,28.258 C8.433,28.258 8.433,22.751 8.433,22.751 C8.433,22.751 8.258,22.835 8.258,22.835 C7.853,23.017 7.402,23.194 6.904,23.370 C6.904,23.370 6.643,23.458 6.643,23.458 C6.643,23.458 6.643,33.432 6.643,33.432 C6.643,33.432 13.757,33.432 13.757,33.432 ZM20.344,33.432 C20.344,33.432 20.344,32.113 20.344,32.113 C20.344,32.113 15.286,32.113 15.286,32.113 C15.286,32.113 15.286,33.432 15.286,33.432 C15.286,33.432 20.344,33.432 20.344,33.432 ZM28.426,33.432 C28.426,33.432 28.409,33.081 28.409,33.081 C28.109,28.164 26.943,25.279 24.831,24.057 C24.831,24.057 24.778,24.030 24.778,24.030 C24.778,24.030 24.780,33.432 24.780,33.432 C24.780,33.432 28.426,33.432 28.426,33.432 ZM19.505,27.477 C19.505,27.477 19.505,21.447 19.505,21.447 C19.505,21.447 19.435,21.385 19.435,21.385 C18.759,20.740 18.396,20.058 18.123,19.379 C18.123,19.379 17.969,18.970 17.969,18.970 C17.969,18.970 17.427,19.264 17.427,19.264 C16.742,19.588 16.028,19.794 15.301,19.874 C15.052,19.901 14.806,19.911 14.560,19.909 C13.638,19.899 12.745,19.675 11.918,19.239 C11.918,19.239 11.914,19.237 11.914,19.237 C11.914,19.237 11.862,19.379 11.862,19.379 C11.584,20.058 11.223,20.740 10.553,21.385 C10.441,21.489 10.323,21.591 10.199,21.693 C10.199,21.693 9.965,21.865 9.965,21.865 C9.965,21.865 9.965,27.477 9.965,27.477 C9.965,27.477 19.505,27.477 19.505,27.477 ZM14.599,18.348 C14.779,18.348 14.959,18.341 15.135,18.321 C17.866,18.022 20.803,15.210 21.103,10.375 C21.103,10.375 21.112,10.019 21.112,10.019 C21.112,10.019 20.642,10.534 20.642,10.534 C19.013,12.129 16.962,12.861 14.947,12.816 C12.928,12.771 10.950,11.950 9.467,10.439 C9.467,10.439 9.050,9.964 9.050,9.964 C9.050,9.964 9.080,10.599 9.080,10.599 C9.497,16.146 12.084,18.318 14.599,18.348 ZM14.974,11.258 C16.589,11.290 18.237,10.708 19.554,9.434 C19.554,9.434 19.605,9.382 19.605,9.382 C19.605,9.382 10.614,9.382 10.614,9.382 C10.614,9.382 10.865,9.635 10.865,9.635 C12.021,10.666 13.484,11.223 14.974,11.258 ZM21.403,7.819 C21.403,7.819 21.388,7.704 21.388,7.704 C20.832,3.558 17.825,1.555 14.852,1.555 C11.877,1.555 8.887,3.553 8.355,7.702 C8.355,7.702 8.343,7.819 8.343,7.819 C8.343,7.819 21.403,7.819 21.403,7.819 Z" id="path-1" class="cls-2" fill-rule="evenodd"/>
</svg>

