<svg xmlns="http://www.w3.org/2000/svg" xmlns:xlink="http://www.w3.org/1999/xlink" preserveAspectRatio="xMidYMid" width="38" height="36" viewBox="0 0 38 36">
  <defs>
    <style>

      .cls-2 {
        fill: #000000;
      }
    </style>
  </defs>
  <path d="M4.823,36.011 C2.157,36.011 -0.004,33.835 -0.004,31.151 C-0.004,31.151 -0.004,10.901 -0.004,10.901 C-0.004,8.220 2.157,6.041 4.823,6.041 C4.823,6.041 6.822,6.041 6.822,6.041 C6.822,6.041 6.871,5.989 6.871,5.989 C6.958,5.903 7.059,5.844 7.176,5.805 C7.176,5.805 25.130,0.017 25.130,0.017 C25.579,-0.123 26.061,0.116 26.211,0.561 C26.211,0.561 28.105,6.041 28.105,6.041 C28.105,6.041 29.345,6.041 29.345,6.041 C32.011,6.041 34.176,8.220 34.176,10.901 C34.176,10.901 34.176,16.076 34.176,16.076 C34.176,16.076 35.940,16.076 35.940,16.076 C37.076,16.076 38.000,17.003 38.000,18.147 C38.000,18.147 38.000,24.233 38.000,24.233 C38.000,25.377 37.076,26.304 35.940,26.304 C35.940,26.304 34.176,26.304 34.176,26.304 C34.176,26.304 34.176,31.151 34.176,31.151 C34.176,33.835 32.011,36.011 29.345,36.011 C29.345,36.011 4.823,36.011 4.823,36.011 ZM29.345,34.274 C31.054,34.274 32.444,32.875 32.444,31.151 C32.444,31.151 32.444,26.304 32.444,26.304 C32.444,26.304 30.878,26.304 30.878,26.304 C30.878,26.304 30.878,27.648 30.878,27.648 C30.878,28.130 30.488,28.516 30.013,28.516 C29.537,28.516 29.150,28.130 29.150,27.648 C29.150,27.648 29.150,26.304 29.150,26.304 C29.150,26.304 23.672,26.304 23.672,26.304 C22.539,26.304 21.618,25.377 21.618,24.233 C21.618,24.233 21.618,18.147 21.618,18.147 C21.618,17.003 22.539,16.076 23.672,16.076 C23.672,16.076 29.150,16.076 29.150,16.076 C29.150,16.076 29.150,13.536 29.150,13.536 C29.150,13.058 29.537,12.664 30.013,12.664 C30.488,12.664 30.878,13.058 30.878,13.536 C30.878,13.536 30.878,16.076 30.878,16.076 C30.878,16.076 32.444,16.076 32.444,16.076 C32.444,16.076 32.444,10.901 32.444,10.901 C32.444,9.181 31.054,7.784 29.345,7.784 C29.345,7.784 4.823,7.784 4.823,7.784 C3.114,7.784 1.721,9.181 1.721,10.901 C1.721,10.901 1.721,31.151 1.721,31.151 C1.721,32.875 3.114,34.274 4.823,34.274 C4.823,34.274 29.345,34.274 29.345,34.274 ZM8.423,33.147 C7.945,33.147 7.561,32.757 7.561,32.278 C7.561,31.797 7.945,31.407 8.423,31.407 C8.423,31.407 11.571,31.407 11.571,31.407 C12.049,31.407 12.440,31.797 12.440,32.278 C12.440,32.757 12.049,33.147 11.571,33.147 C11.571,33.147 8.423,33.147 8.423,33.147 ZM14.721,33.147 C14.246,33.147 13.859,32.757 13.859,32.278 C13.859,31.797 14.246,31.407 14.721,31.407 C14.721,31.407 17.872,31.407 17.872,31.407 C18.347,31.407 18.735,31.797 18.735,32.278 C18.735,32.757 18.347,33.147 17.872,33.147 C17.872,33.147 14.721,33.147 14.721,33.147 ZM21.019,33.147 C20.544,33.147 20.157,32.757 20.157,32.278 C20.157,31.797 20.544,31.407 21.019,31.407 C21.019,31.407 24.170,31.407 24.170,31.407 C24.645,31.407 25.033,31.797 25.033,32.278 C25.033,32.757 24.645,33.147 24.170,33.147 C24.170,33.147 21.019,33.147 21.019,33.147 ZM27.321,33.147 C26.842,33.147 26.455,32.757 26.455,32.278 C26.455,31.797 26.842,31.407 27.321,31.407 C27.321,31.407 27.705,31.407 27.705,31.407 C28.314,31.407 28.834,31.027 29.049,30.483 C29.222,30.034 29.726,29.811 30.169,29.988 C30.615,30.165 30.830,30.669 30.657,31.118 C30.195,32.301 29.046,33.147 27.705,33.147 C27.705,33.147 27.321,33.147 27.321,33.147 ZM5.311,32.980 C5.201,32.986 5.084,32.970 4.973,32.921 C3.804,32.449 2.971,31.299 2.971,29.945 C2.971,29.945 2.971,29.555 2.971,29.555 C2.971,29.073 3.359,28.683 3.837,28.683 C4.312,28.683 4.703,29.073 4.703,29.555 C4.703,29.555 4.703,29.945 4.703,29.945 C4.703,30.561 5.077,31.092 5.617,31.305 C6.057,31.482 6.275,31.990 6.096,32.433 C5.966,32.770 5.650,32.977 5.311,32.980 ZM3.837,27.251 C3.359,27.251 2.971,26.861 2.971,26.379 C2.971,26.379 2.971,23.210 2.971,23.210 C2.971,22.732 3.359,22.339 3.837,22.339 C4.312,22.339 4.703,22.732 4.703,23.210 C4.703,23.210 4.703,26.379 4.703,26.379 C4.703,26.861 4.312,27.251 3.837,27.251 ZM35.940,24.561 C36.122,24.561 36.268,24.413 36.268,24.233 C36.268,24.233 36.268,18.147 36.268,18.147 C36.268,17.967 36.119,17.816 35.940,17.816 C35.940,17.816 23.672,17.816 23.672,17.816 C23.496,17.816 23.347,17.967 23.347,18.147 C23.347,18.147 23.347,24.233 23.347,24.233 C23.347,24.416 23.496,24.561 23.672,24.561 C23.672,24.561 35.940,24.561 35.940,24.561 ZM26.894,23.764 C25.413,23.764 24.216,22.558 24.216,21.067 C24.216,19.583 25.413,18.373 26.894,18.373 C28.372,18.373 29.570,19.583 29.570,21.067 C29.570,22.558 28.372,23.764 26.894,23.764 ZM26.894,22.024 C27.415,22.024 27.842,21.595 27.842,21.067 C27.842,20.546 27.415,20.117 26.894,20.117 C26.370,20.117 25.944,20.546 25.944,21.067 C25.944,21.595 26.370,22.024 26.894,22.024 ZM7.574,21.326 C7.349,21.326 7.128,21.247 6.962,21.074 C6.623,20.733 6.623,20.179 6.962,19.838 C6.962,19.838 13.784,12.966 13.784,12.966 C14.122,12.628 14.669,12.628 15.008,12.966 C15.346,13.310 15.346,13.857 15.008,14.198 C15.008,14.198 8.182,21.074 8.182,21.074 C8.013,21.244 7.792,21.326 7.574,21.326 ZM3.837,20.913 C3.359,20.913 2.971,20.523 2.971,20.038 C2.971,20.038 2.971,16.869 2.971,16.869 C2.971,16.390 3.359,15.997 3.837,15.997 C4.312,15.997 4.703,16.390 4.703,16.869 C4.703,16.869 4.703,20.038 4.703,20.038 C4.703,20.523 4.312,20.913 3.837,20.913 ZM6.688,17.141 C6.467,17.141 6.242,17.056 6.073,16.885 C5.738,16.545 5.738,15.994 6.073,15.653 C6.073,15.653 9.631,12.078 9.631,12.078 C9.966,11.737 10.513,11.737 10.851,12.078 C11.186,12.418 11.186,12.966 10.851,13.310 C10.851,13.310 7.300,16.885 7.300,16.885 C7.128,17.056 6.910,17.141 6.688,17.141 ZM3.837,14.572 C3.359,14.572 2.971,14.182 2.971,13.697 C2.971,13.697 2.971,12.264 2.971,12.264 C2.971,11.429 3.293,10.665 3.817,10.092 C4.146,9.741 4.690,9.725 5.045,10.046 C5.393,10.374 5.412,10.927 5.087,11.278 C4.849,11.540 4.703,11.884 4.703,12.264 C4.703,12.264 4.703,13.697 4.703,13.697 C4.703,14.182 4.312,14.572 3.837,14.572 ZM29.306,11.442 C29.085,11.452 28.864,11.373 28.691,11.206 C28.427,10.960 28.086,10.809 27.705,10.809 C27.705,10.809 26.292,10.809 26.292,10.809 C25.817,10.809 25.426,10.426 25.426,9.938 C25.426,9.462 25.817,9.069 26.292,9.069 C26.292,9.069 27.705,9.069 27.705,9.069 C28.541,9.069 29.306,9.403 29.873,9.938 C30.221,10.265 30.240,10.816 29.912,11.167 C29.749,11.344 29.531,11.435 29.306,11.442 ZM7.395,10.809 C6.916,10.809 6.529,10.423 6.529,9.938 C6.529,9.462 6.916,9.069 7.395,9.069 C7.395,9.069 10.549,9.069 10.549,9.069 C11.024,9.069 11.411,9.462 11.411,9.938 C11.411,10.423 11.024,10.809 10.549,10.809 C10.549,10.809 7.395,10.809 7.395,10.809 ZM13.696,10.809 C13.218,10.809 12.830,10.423 12.830,9.938 C12.830,9.462 13.218,9.069 13.696,9.069 C13.696,9.069 16.843,9.069 16.843,9.069 C17.325,9.069 17.709,9.462 17.709,9.938 C17.709,10.423 17.325,10.809 16.843,10.809 C16.843,10.809 13.696,10.809 13.696,10.809 ZM19.997,10.809 C19.519,10.809 19.132,10.423 19.132,9.938 C19.132,9.462 19.519,9.069 19.997,9.069 C19.997,9.069 23.145,9.069 23.145,9.069 C23.620,9.069 24.011,9.462 24.011,9.938 C24.011,10.423 23.620,10.809 23.145,10.809 C23.145,10.809 19.997,10.809 19.997,10.809 ZM26.270,6.041 C26.270,6.041 24.857,1.935 24.857,1.935 C24.857,1.935 12.121,6.041 12.121,6.041 C12.121,6.041 26.270,6.041 26.270,6.041 Z" id="path-1" class="cls-2" fill-rule="evenodd"/>
</svg>

