<svg xmlns="http://www.w3.org/2000/svg" xmlns:xlink="http://www.w3.org/1999/xlink" preserveAspectRatio="xMidYMid" width="31" height="37" viewBox="0 0 31 37">
  <defs>
    <style>

      .cls-2 {
        fill: #000000;
      }
    </style>
  </defs>
  <path d="M4.742,36.171 C4.625,36.179 4.497,36.153 4.383,36.093 C4.019,35.904 3.872,35.443 4.055,35.068 C4.055,35.068 5.629,31.836 5.629,31.836 C5.629,31.836 5.562,31.773 5.562,31.773 C2.165,28.876 0.002,24.510 0.002,19.623 C0.002,10.939 6.841,3.888 15.272,3.888 C23.698,3.888 30.540,10.939 30.540,19.623 C30.540,23.287 29.322,26.659 27.279,29.338 C27.279,29.338 25.119,31.618 25.119,31.618 C25.119,31.618 25.364,31.836 25.364,31.836 C25.364,31.836 26.934,35.068 26.934,35.068 C27.112,35.443 26.965,35.904 26.601,36.093 C26.487,36.153 26.359,36.179 26.242,36.171 C25.978,36.165 25.728,36.013 25.605,35.749 C25.605,35.749 24.032,32.518 24.032,32.518 C24.032,32.518 23.804,32.667 23.804,32.667 C21.369,34.369 18.433,35.357 15.272,35.357 C12.901,35.357 10.655,34.801 8.651,33.804 C8.651,33.804 6.841,32.733 6.841,32.733 C6.841,32.733 5.381,35.749 5.381,35.749 C5.256,36.013 5.001,36.165 4.742,36.171 ZM15.272,33.830 C22.881,33.830 29.055,27.464 29.055,19.623 C29.055,11.784 22.881,5.415 15.272,5.415 C7.661,5.415 1.487,11.784 1.487,19.623 C1.487,27.464 7.661,33.830 15.272,33.830 ZM15.272,31.784 C8.756,31.784 3.472,26.338 3.472,19.623 C3.472,12.913 8.756,7.461 15.272,7.461 C21.786,7.461 27.073,12.913 27.073,19.623 C27.073,26.338 21.786,31.784 15.272,31.784 ZM15.272,30.255 C20.966,30.255 25.589,25.493 25.589,19.623 C25.589,13.752 20.966,8.988 15.272,8.988 C9.576,8.988 4.953,13.752 4.953,19.623 C4.953,25.493 9.576,30.255 15.272,30.255 ZM24.101,29.928 C23.865,29.948 23.626,29.848 23.462,29.641 C23.209,29.306 23.265,28.828 23.584,28.564 C24.510,27.816 25.286,26.839 25.933,25.676 C26.139,25.310 26.595,25.184 26.951,25.396 C27.301,25.608 27.424,26.072 27.218,26.438 C26.495,27.739 25.603,28.874 24.505,29.767 C24.382,29.862 24.246,29.916 24.101,29.928 ZM15.364,29.000 C14.817,29.000 14.374,28.547 14.374,27.983 C14.374,27.424 14.817,26.966 15.364,26.966 C15.909,26.966 16.351,27.424 16.351,27.983 C16.351,28.547 15.909,29.000 15.364,29.000 ZM10.905,27.693 C10.355,27.693 9.913,27.241 9.913,26.676 C9.913,26.118 10.355,25.662 10.905,25.662 C11.447,25.662 11.889,26.118 11.889,26.676 C11.889,27.241 11.447,27.693 10.905,27.693 ZM19.528,27.693 C18.981,27.693 18.539,27.241 18.539,26.676 C18.539,26.118 18.981,25.662 19.528,25.662 C20.071,25.662 20.513,26.118 20.513,26.676 C20.513,27.241 20.071,27.693 19.528,27.693 ZM8.070,24.714 C7.522,24.714 7.077,24.258 7.077,23.691 C7.077,23.132 7.522,22.677 8.070,22.677 C8.612,22.677 9.054,23.132 9.054,23.691 C9.054,24.258 8.612,24.714 8.070,24.714 ZM22.481,24.714 C21.933,24.714 21.491,24.258 21.491,23.691 C21.491,23.132 21.933,22.677 22.481,22.677 C23.026,22.677 23.468,23.132 23.468,23.691 C23.468,24.258 23.026,24.714 22.481,24.714 ZM19.573,24.086 C19.428,24.086 19.281,24.040 19.159,23.949 C19.159,23.949 14.577,20.657 14.577,20.657 C14.380,20.514 14.261,20.279 14.261,20.030 C14.261,20.030 14.261,10.461 14.261,10.461 C14.261,10.037 14.589,9.693 15.000,9.693 C15.409,9.693 15.742,10.037 15.742,10.461 C15.742,10.461 15.742,19.631 15.742,19.631 C15.742,19.631 20.007,22.694 20.007,22.694 C20.343,22.937 20.426,23.416 20.193,23.760 C20.046,23.977 19.809,24.089 19.573,24.086 ZM23.445,20.485 C22.898,20.485 22.456,20.030 22.456,19.471 C22.456,18.906 22.898,18.454 23.445,18.454 C23.988,18.454 24.432,18.906 24.432,19.471 C24.432,20.030 23.988,20.485 23.445,20.485 ZM6.802,20.365 C6.254,20.365 5.812,19.909 5.812,19.342 C5.812,18.783 6.254,18.328 6.802,18.328 C7.347,18.328 7.789,18.783 7.789,19.342 C7.789,19.909 7.347,20.365 6.802,20.365 ZM7.947,16.322 C7.402,16.322 6.960,15.867 6.960,15.305 C6.960,14.741 7.402,14.291 7.947,14.291 C8.489,14.291 8.937,14.741 8.937,15.305 C8.937,15.867 8.489,16.322 7.947,16.322 ZM22.481,16.259 C21.933,16.259 21.491,15.807 21.491,15.242 C21.491,14.684 21.933,14.228 22.481,14.228 C23.026,14.228 23.468,14.684 23.468,15.242 C23.468,15.807 23.026,16.259 22.481,16.259 ZM4.408,13.523 C4.408,13.523 4.344,13.512 4.344,13.512 C4.344,13.512 4.117,13.437 4.117,13.437 C4.117,13.437 4.078,13.417 4.078,13.417 C3.722,13.211 3.599,12.741 3.805,12.374 C4.534,11.079 5.426,9.945 6.521,9.051 C6.841,8.790 7.305,8.845 7.561,9.177 C7.814,9.507 7.761,9.991 7.439,10.249 C6.518,11.002 5.743,11.976 5.089,13.142 C4.962,13.369 4.739,13.503 4.492,13.523 C4.492,13.523 4.408,13.523 4.408,13.523 ZM10.602,13.337 C10.054,13.337 9.612,12.884 9.612,12.320 C9.612,11.761 10.054,11.306 10.602,11.306 C11.144,11.306 11.586,11.761 11.586,12.320 C11.586,12.884 11.144,13.337 10.602,13.337 ZM19.406,13.277 C18.859,13.277 18.414,12.821 18.414,12.257 C18.414,11.698 18.859,11.243 19.406,11.243 C19.948,11.243 20.390,11.698 20.390,12.257 C20.390,12.821 19.948,13.277 19.406,13.277 ZM28.769,10.037 C28.599,10.031 28.427,9.962 28.288,9.833 C25.667,7.335 22.775,5.384 19.606,4.003 C19.159,3.808 19.011,3.230 19.309,2.831 C20.802,0.829 23.017,0.135 25.044,0.439 C25.044,0.439 26.723,0.978 26.723,0.978 C26.723,0.978 26.929,0.359 26.929,0.359 C27.095,0.164 27.337,0.032 27.610,0.015 C28.152,-0.016 28.624,0.408 28.655,0.966 C28.669,1.178 28.622,1.379 28.519,1.551 C28.519,1.551 28.174,1.883 28.174,1.883 C28.174,1.883 29.331,3.212 29.331,3.212 C30.340,4.842 30.579,7.060 29.467,9.590 C29.361,9.825 29.161,9.976 28.927,10.022 C28.927,10.022 28.783,10.037 28.783,10.037 C28.783,10.037 28.769,10.037 28.769,10.037 ZM1.487,10.022 C1.264,9.974 1.061,9.825 0.956,9.590 C-0.156,7.060 0.086,4.842 1.092,3.212 C1.092,3.212 2.248,1.883 2.248,1.883 C2.248,1.883 1.904,1.551 1.904,1.551 C1.806,1.379 1.754,1.178 1.767,0.966 C1.801,0.408 2.271,-0.016 2.816,0.015 C3.085,0.032 3.327,0.164 3.494,0.359 C3.494,0.359 3.694,0.958 3.694,0.958 C3.694,0.958 4.164,0.751 4.164,0.751 C6.474,-0.088 9.312,0.416 11.119,2.831 C11.417,3.230 11.267,3.808 10.822,4.003 C7.647,5.384 4.761,7.335 2.134,9.833 C1.951,10.008 1.706,10.068 1.487,10.022 ZM1.948,7.960 C1.948,7.960 2.171,7.759 2.171,7.759 C4.283,5.903 6.557,4.373 9.006,3.166 C9.006,3.166 9.273,3.046 9.273,3.046 C9.273,3.046 8.047,2.255 8.047,2.255 C6.702,1.680 5.165,1.817 3.927,2.522 C2.332,3.424 1.237,5.281 1.904,7.813 C1.904,7.813 1.948,7.960 1.948,7.960 ZM28.477,7.960 C28.477,7.960 28.519,7.813 28.519,7.813 C29.186,5.281 28.091,3.424 26.495,2.522 C25.261,1.817 23.721,1.680 22.375,2.255 C22.375,2.255 21.149,3.046 21.149,3.046 C21.149,3.046 21.422,3.166 21.422,3.166 C23.865,4.373 26.145,5.903 28.258,7.759 C28.258,7.759 28.477,7.960 28.477,7.960 Z" id="path-1" class="cls-2" fill-rule="evenodd"/>
</svg>

