<svg xmlns="http://www.w3.org/2000/svg" xmlns:xlink="http://www.w3.org/1999/xlink" preserveAspectRatio="xMidYMid" width="83" height="83" viewBox="0 0 83 83">
  <defs>
    <style>

      .cls-2 {
        fill: #000000;
      }
    </style>
  </defs>
  <path d="M73.804,82.198 C73.804,82.198 8.595,82.198 8.595,82.198 C6.303,82.198 4.149,81.289 2.528,79.637 C0.907,77.985 0.015,75.789 0.015,73.453 C0.015,73.453 0.015,73.453 0.015,73.453 C0.015,73.453 0.015,36.725 0.015,36.725 C0.015,32.671 3.198,29.729 7.582,29.729 C9.737,29.729 12.027,30.955 12.027,33.227 C12.027,33.227 12.027,36.725 12.027,36.725 C12.027,36.725 25.755,36.725 25.755,36.725 C25.755,36.725 25.755,40.223 25.755,40.223 C25.755,40.223 12.027,40.223 12.027,40.223 C12.027,40.223 12.027,68.206 12.027,68.206 C12.027,69.172 11.259,69.955 10.311,69.955 C9.813,69.955 9.365,69.739 9.051,69.394 C8.722,69.316 8.142,69.238 7.582,69.238 C5.302,69.238 3.447,71.129 3.447,73.453 C3.447,73.454 3.447,73.454 3.447,73.454 C3.447,74.855 3.983,76.173 4.955,77.164 C5.927,78.155 7.220,78.700 8.595,78.700 C8.595,78.700 73.804,78.700 73.804,78.700 C76.642,78.700 78.952,76.347 78.952,73.453 C78.952,71.129 77.097,69.238 74.817,69.238 C74.257,69.238 73.677,69.316 73.348,69.394 C73.034,69.739 72.586,69.955 72.088,69.955 C71.140,69.955 70.372,69.172 70.372,68.206 C70.372,68.206 70.372,40.223 70.372,40.223 C70.372,40.223 65.224,40.223 65.224,40.223 C65.224,40.223 65.224,36.725 65.224,36.725 C65.224,36.725 70.372,36.725 70.372,36.725 C70.372,36.725 70.372,33.227 70.372,33.227 C70.372,30.955 72.662,29.729 74.817,29.729 C79.201,29.729 82.384,32.671 82.384,36.725 C82.384,36.725 82.384,73.453 82.384,73.453 C82.384,78.275 78.535,82.198 73.804,82.198 ZM3.447,66.996 C4.637,66.202 6.058,65.740 7.582,65.740 C7.890,65.740 8.236,65.751 8.595,65.782 C8.595,65.782 8.595,33.460 8.595,33.460 C8.389,33.349 7.978,33.227 7.582,33.227 C5.675,33.227 3.447,34.143 3.447,36.725 C3.447,36.725 3.447,66.996 3.447,66.996 ZM78.952,36.725 C78.952,34.143 76.724,33.227 74.817,33.227 C74.421,33.227 74.010,33.349 73.804,33.460 C73.804,33.460 73.804,65.782 73.804,65.782 C74.164,65.751 74.509,65.740 74.817,65.740 C76.342,65.740 77.763,66.202 78.952,66.996 C78.952,66.996 78.952,36.725 78.952,36.725 ZM70.372,22.733 C70.372,22.733 54.928,22.733 54.928,22.733 C54.928,22.733 54.928,30.948 54.928,30.948 C54.928,30.948 60.994,40.223 60.994,40.223 C60.994,40.223 63.508,40.223 63.508,40.223 C63.508,40.223 63.508,43.721 63.508,43.721 C63.508,43.721 42.915,43.721 42.915,43.721 C42.915,43.721 42.915,40.223 42.915,40.223 C42.915,40.223 45.429,40.223 45.429,40.223 C45.429,40.223 51.496,30.948 51.496,30.948 C51.496,30.948 51.496,22.733 51.496,22.733 C51.496,22.733 39.483,22.733 39.483,22.733 C39.483,22.733 39.483,62.959 39.483,62.959 C39.483,62.959 44.631,62.959 44.631,62.959 C44.631,62.959 44.631,66.457 44.631,66.457 C44.631,66.457 24.039,66.457 24.039,66.457 C24.039,66.457 24.039,62.959 24.039,62.959 C24.039,62.959 29.187,62.959 29.187,62.959 C29.187,62.959 29.187,22.733 29.187,22.733 C29.187,22.733 24.039,22.733 24.039,22.733 C24.039,22.733 24.039,24.482 24.039,24.482 C24.039,25.448 23.271,26.231 22.323,26.231 C22.323,26.231 8.595,26.231 8.595,26.231 C7.648,26.231 6.879,25.448 6.879,24.482 C6.879,24.482 6.879,13.988 6.879,13.988 C6.879,13.022 7.648,12.239 8.595,12.239 C8.595,12.239 9.847,12.239 9.847,12.239 C9.847,12.239 30.039,0.235 30.039,0.235 C30.510,-0.046 31.085,-0.081 31.586,0.141 C31.586,0.141 58.962,12.239 58.962,12.239 C58.962,12.239 63.508,12.239 63.508,12.239 C63.963,12.239 64.399,12.423 64.721,12.751 C64.721,12.751 71.585,19.747 71.585,19.747 C72.076,20.247 72.223,21.000 71.957,21.653 C71.691,22.307 71.066,22.733 70.372,22.733 ZM49.554,40.223 C49.554,40.223 56.869,40.223 56.869,40.223 C56.869,40.223 53.212,34.631 53.212,34.631 C53.212,34.631 49.554,40.223 49.554,40.223 ZM36.051,62.959 C36.051,62.959 36.051,22.733 36.051,22.733 C36.051,22.733 32.619,22.733 32.619,22.733 C32.619,22.733 32.619,62.959 32.619,62.959 C32.619,62.959 36.051,62.959 36.051,62.959 ZM10.311,22.733 C10.311,22.733 20.607,22.733 20.607,22.733 C20.607,22.733 20.607,15.737 20.607,15.737 C20.607,15.737 10.311,15.737 10.311,15.737 C10.311,15.737 10.311,22.733 10.311,22.733 ZM29.187,4.790 C29.187,4.790 16.659,12.239 16.659,12.239 C16.659,12.239 22.323,12.239 22.323,12.239 C22.323,12.239 29.187,12.239 29.187,12.239 C29.187,12.239 29.187,4.790 29.187,4.790 ZM32.619,4.410 C32.619,4.410 32.619,12.239 32.619,12.239 C32.619,12.239 50.335,12.239 50.335,12.239 C50.335,12.239 32.619,4.410 32.619,4.410 ZM62.797,15.737 C62.797,15.737 24.039,15.737 24.039,15.737 C24.039,15.737 24.039,19.235 24.039,19.235 C24.039,19.235 66.229,19.235 66.229,19.235 C66.229,19.235 62.797,15.737 62.797,15.737 Z" id="path-1" class="cls-2" fill-rule="evenodd"/>
</svg>

