<svg xmlns="http://www.w3.org/2000/svg" xmlns:xlink="http://www.w3.org/1999/xlink" preserveAspectRatio="xMidYMid" width="76" height="80" viewBox="0 0 76 80">
  <defs>
    <style>

      .cls-2 {
        fill: #000000;
      }
    </style>
  </defs>
  <path d="M65.884,11.510 C65.884,11.510 65.884,8.222 65.884,8.222 C65.884,8.222 72.473,8.222 72.473,8.222 C72.473,5.703 70.763,3.752 68.381,3.370 C65.127,3.768 62.589,6.512 62.589,9.866 C62.589,9.866 62.589,62.476 62.589,62.476 C62.589,62.476 34.583,62.476 34.583,62.476 C34.583,62.476 34.583,62.805 34.583,62.805 C34.583,67.042 31.128,70.506 29.641,71.800 C29.641,71.800 29.641,72.341 29.641,72.341 C29.641,72.341 32.936,72.341 32.936,72.341 C32.936,72.341 32.936,78.917 32.936,78.917 C32.936,78.917 29.641,78.917 29.641,78.917 C29.641,78.917 29.641,75.629 29.641,75.629 C29.641,75.629 3.283,75.629 3.283,75.629 C3.283,75.629 3.283,78.917 3.283,78.917 C3.283,78.917 -0.012,78.917 -0.012,78.917 C-0.012,78.917 -0.012,72.341 -0.012,72.341 C-0.012,72.341 3.285,72.341 3.285,72.341 C3.285,72.341 3.283,52.941 3.283,52.941 C3.283,48.945 4.729,47.334 7.112,45.153 C7.112,45.153 13.167,40.314 13.167,40.314 C13.167,40.314 13.167,9.866 13.167,9.866 C13.167,4.426 17.601,0.002 23.052,0.002 C23.052,0.002 60.941,0.002 60.941,0.002 C60.941,0.002 67.531,0.002 67.531,0.002 C67.531,0.002 69.178,0.002 69.178,0.002 C69.178,0.002 69.178,0.161 69.178,0.161 C72.982,0.903 75.768,4.177 75.768,8.222 C75.768,8.222 75.768,11.510 75.768,11.510 C75.768,11.510 65.884,11.510 65.884,11.510 ZM13.167,53.406 C13.167,53.406 13.167,44.524 13.167,44.524 C13.167,44.524 9.254,47.648 9.254,47.648 C7.137,49.592 6.578,50.382 6.578,52.941 C6.578,52.941 6.579,72.341 6.579,72.341 C6.579,72.341 26.346,72.341 26.346,72.341 C26.346,72.341 26.346,70.204 26.346,70.204 C26.346,70.204 27.005,69.711 27.005,69.711 C27.045,69.680 31.289,66.435 31.289,62.805 C31.289,62.805 31.289,62.476 31.289,62.476 C31.289,62.476 25.930,62.476 25.930,62.476 C24.458,67.579 19.391,69.382 17.860,69.382 C17.860,69.382 17.860,66.093 17.860,66.093 C17.870,66.090 23.052,65.079 23.052,59.517 C23.052,59.517 23.052,55.601 23.052,55.601 C23.052,55.601 23.471,55.133 23.471,55.133 C23.557,55.037 25.577,52.784 27.349,51.010 C28.850,49.068 28.101,46.921 27.075,46.005 C26.107,45.141 25.549,45.699 25.364,45.883 C25.364,45.883 12.185,59.035 12.185,59.035 C12.185,59.035 9.856,56.711 9.856,56.711 C9.856,56.711 13.167,53.406 13.167,53.406 ZM60.941,3.290 C60.941,3.290 23.052,3.290 23.052,3.290 C19.418,3.290 16.462,6.240 16.462,9.866 C16.462,9.866 16.462,50.118 16.462,50.118 C16.462,50.118 23.035,43.558 23.035,43.558 C24.796,41.797 27.303,41.797 29.273,43.555 C31.642,45.671 32.514,49.831 29.870,53.129 C29.870,53.129 29.748,53.265 29.748,53.265 C28.490,54.521 27.044,56.094 26.346,56.861 C26.346,56.861 26.346,59.188 26.346,59.188 C26.346,59.188 31.289,59.188 31.289,59.188 C31.289,59.188 34.583,59.188 34.583,59.188 C34.583,59.188 59.294,59.188 59.294,59.188 C59.294,59.188 59.294,9.866 59.294,9.866 C59.294,7.342 60.249,5.037 61.817,3.290 C61.817,3.290 60.941,3.290 60.941,3.290 ZM54.352,54.256 C54.352,54.256 50.092,54.256 50.092,54.256 C50.092,54.256 47.762,56.581 47.762,56.581 C47.762,56.581 45.433,54.256 45.433,54.256 C45.433,54.256 41.173,54.256 41.173,54.256 C41.173,54.256 41.173,50.004 41.173,50.004 C41.173,50.004 38.843,47.680 38.843,47.680 C38.843,47.680 41.173,45.355 41.173,45.355 C41.173,45.355 41.173,41.103 41.173,41.103 C41.173,41.103 45.433,41.103 45.433,41.103 C45.433,41.103 47.762,38.778 47.762,38.778 C47.762,38.778 50.092,41.103 50.092,41.103 C50.092,41.103 54.352,41.103 54.352,41.103 C54.352,41.103 54.352,45.355 54.352,45.355 C54.352,45.355 56.681,47.680 56.681,47.680 C56.681,47.680 54.352,50.004 54.352,50.004 C54.352,50.004 54.352,54.256 54.352,54.256 ZM51.057,46.716 C51.057,46.716 51.057,44.391 51.057,44.391 C51.057,44.391 48.728,44.391 48.728,44.391 C48.728,44.391 47.762,43.428 47.762,43.428 C47.762,43.428 46.797,44.391 46.797,44.391 C46.797,44.391 44.468,44.391 44.468,44.391 C44.468,44.391 44.468,46.716 44.468,46.716 C44.468,46.716 43.502,47.680 43.502,47.680 C43.502,47.680 44.468,48.643 44.468,48.643 C44.468,48.643 44.468,50.968 44.468,50.968 C44.468,50.968 46.797,50.968 46.797,50.968 C46.797,50.968 47.762,51.931 47.762,51.931 C47.762,51.931 48.728,50.968 48.728,50.968 C48.728,50.968 51.057,50.968 51.057,50.968 C51.057,50.968 51.057,48.643 51.057,48.643 C51.057,48.643 52.022,47.680 52.022,47.680 C52.022,47.680 51.057,46.716 51.057,46.716 ZM24.699,23.019 C24.699,23.019 51.057,23.019 51.057,23.019 C51.057,23.019 51.057,26.307 51.057,26.307 C51.057,26.307 24.699,26.307 24.699,26.307 C24.699,26.307 24.699,23.019 24.699,23.019 ZM24.699,14.798 C24.699,14.798 51.057,14.798 51.057,14.798 C51.057,14.798 51.057,18.086 51.057,18.086 C51.057,18.086 24.699,18.086 24.699,18.086 C24.699,18.086 24.699,14.798 24.699,14.798 ZM41.173,34.527 C41.173,34.527 24.699,34.527 24.699,34.527 C24.699,34.527 24.699,31.239 24.699,31.239 C24.699,31.239 41.173,31.239 41.173,31.239 C41.173,31.239 41.173,34.527 41.173,34.527 Z" id="path-1" class="cls-2" fill-rule="evenodd"/>
</svg>

