<svg xmlns="http://www.w3.org/2000/svg" preserveAspectRatio="xMidYMid" width="26" height="26" viewBox="0 0 26 26" data-prefix="ik6tx7y41"><path d="M18.35 25.524h-.001c-2.495 0-6.589-1.115-11.925-6.422C-.448 12.264-.264 7.441.135 5.685.641 3.456 4.008 1.021 5.263.27A1.94 1.94 0 0 1 6.261 0c.746 0 1.496.406 1.909 1.033l3.7 5.616c.637.965.457 2.293-.4 2.959-.391.303-.939.725-1.35 1.041l-.547.422c-.202.157-.313.26-.333.309.001 0-.012.138.202.498.46.769.922 1.288 1.843 2.321l.075.074c1.036.913 1.555 1.371 2.328 1.828.322.19.468.199.494.199.054-.019.158-.129.315-.328l.338-.434c.324-.417.8-1.03 1.134-1.454.386-.492 1-.774 1.685-.774.462 0 .919.133 1.289.374l5.645 3.681c.978.638 1.329 1.962.767 2.893-.754 1.248-3.203 4.597-5.443 5.1a7.125 7.125 0 0 1-1.562.166zM6.261 1.829c-.027 0-.044.004-.05.009-1.569.938-3.997 2.991-4.283 4.25-.258 1.139-.604 5.353 5.797 11.721 5.148 5.121 8.867 5.886 10.625 5.886.412 0 .801-.041 1.157-.121 1.265-.284 3.329-2.699 4.273-4.259.039-.065-.032-.311-.2-.42l-5.645-3.681a.532.532 0 0 0-.281-.075c-.132 0-.215.043-.237.07-.331.423-.805 1.033-1.128 1.448l-.344.442c-.284.36-.811 1.03-1.763 1.03-.444.001-.912-.148-1.433-.455-.922-.546-1.557-1.105-2.608-2.032l-.232-.229c-.935-1.05-1.499-1.683-2.048-2.601-1.112-1.868.072-2.788.578-3.181l.556-.428c.409-.315.955-.735 1.343-1.037.079-.061.107-.344-.005-.514l-3.7-5.616a.502.502 0 0 0-.372-.207z" fill-rule="evenodd"></path></svg>