<svg xmlns="http://www.w3.org/2000/svg" preserveAspectRatio="xMidYMid" width="26" height="25" viewBox="0 0 26 25" data-prefix="iete0d6q3"><path d="M25.589 23.998H.006l-.007-4.349c-.002-1.95 1.071-3.469 2.944-4.167.712-.265 3.461-.953 4.801-1.283V13.14c0-.632-.385-1.738-.98-2.818a6.992 6.992 0 0 1-.865-3.369c0-3.838 3.094-6.961 6.898-6.961s6.899 3.123 6.899 6.961a6.994 6.994 0 0 1-.865 3.369c-.595 1.079-.98 2.185-.98 2.818v1.059c1.34.33 4.089 1.018 4.801 1.284 1.873.697 2.945 2.216 2.943 4.166l-.006 4.349zM1.844 22.183h21.907l.003-2.536c.002-1.203-.588-2.033-1.753-2.467-.603-.225-3.494-.955-5.29-1.39l-.701-.17v-2.48c0-1.358.842-3.029 1.204-3.685a5.2 5.2 0 0 0 .641-2.502c0-2.837-2.269-5.146-5.058-5.146-2.789 0-5.058 2.309-5.058 5.146 0 .876.222 1.741.642 2.502.362.657 1.204 2.33 1.204 3.685v2.48l-.701.17c-1.797.436-4.688 1.165-5.29 1.39-1.165.434-1.756 1.264-1.754 2.467l.004 2.536z" fill-rule="evenodd"></path></svg>