<svg width="24" height="25" viewBox="0 0 24 25" fill="none" xmlns="http://www.w3.org/2000/svg">
<path d="M0 24.9572L1.72334 18.5603C0.333509 16.0683 -0.108053 13.1605 0.479677 10.3703C1.06741 7.58006 2.64501 5.09467 4.92298 3.37017C7.20096 1.64566 10.0265 0.797729 12.8811 0.981957C15.7358 1.16619 18.428 2.37022 20.4638 4.37312C22.4996 6.37602 23.7424 9.04343 23.9642 11.8859C24.186 14.7283 23.3718 17.5552 21.6712 19.8476C19.9705 22.1401 17.4974 23.7445 14.7056 24.3663C11.9139 24.9881 8.99076 24.5857 6.47269 23.2329L0 24.9572ZM6.78479 20.8391L7.18509 21.0758C9.00898 22.1532 11.1393 22.5991 13.2439 22.3439C15.3486 22.0887 17.3095 21.1468 18.821 19.6649C20.3325 18.183 21.3097 16.2445 21.6003 14.1513C21.8909 12.0581 21.4786 9.92796 20.4277 8.09271C19.3767 6.25746 17.7462 4.82024 15.7901 4.00503C13.834 3.18981 11.6623 3.04238 9.61339 3.58572C7.56447 4.12906 5.75344 5.33265 4.46252 7.00892C3.1716 8.68519 2.4733 10.74 2.47645 12.8531C2.47473 14.6052 2.96092 16.3234 3.8809 17.8164L4.13194 18.2289L3.1685 21.7993L6.78479 20.8391Z" fill="#00D95F"/>
<path fill-rule="evenodd" clip-rule="evenodd" d="M16.5004 14.4956C16.2657 14.307 15.991 14.1742 15.697 14.1074C15.4031 14.0406 15.0977 14.0416 14.8042 14.1102C14.3632 14.2928 14.0782 14.9825 13.7933 15.3274C13.7332 15.4101 13.6449 15.468 13.545 15.4904C13.445 15.5129 13.3403 15.4982 13.2505 15.4491C11.6359 14.8188 10.2826 13.6631 9.41031 12.1695C9.33591 12.0763 9.3007 11.958 9.31209 11.8394C9.32348 11.7208 9.38058 11.6113 9.47137 11.5339C9.7892 11.2203 10.0226 10.8319 10.1499 10.4046C10.1781 9.93329 10.0698 9.46382 9.83775 9.05218C9.65838 8.47508 9.317 7.96121 8.85396 7.57129C8.61513 7.46424 8.35033 7.42834 8.09149 7.46794C7.83266 7.50753 7.59084 7.62093 7.39523 7.79444C7.05563 8.08645 6.78608 8.45067 6.60642 8.86027C6.42677 9.26987 6.34159 9.71441 6.35716 10.1612C6.3582 10.412 6.3901 10.6618 6.45214 10.905C6.60969 11.4892 6.85197 12.0473 7.17133 12.5617C7.40174 12.9557 7.65314 13.3372 7.92444 13.7045C8.80616 14.9108 9.91449 15.9351 11.1879 16.7204C11.8269 17.1194 12.5099 17.4439 13.2234 17.6873C13.9645 18.0222 14.7827 18.1507 15.5913 18.0593C16.0519 17.9898 16.4884 17.8085 16.8622 17.5314C17.2361 17.2543 17.5359 16.8899 17.7352 16.4702C17.8524 16.2166 17.8879 15.9332 17.837 15.6587C17.7149 15.0975 16.9618 14.7661 16.5004 14.4956Z" fill="#00D95F"/>
</svg>
